#!OML:ASF E:/inclinewalkrobotboard/Project1/Captureday1/Session1/subject1.ASF
:FULLY-SPECIFIED
:DEGREES
301
root 0 0 0 0.2614837480615937 -30.043141306048213 0.15034825164361149
lowerback 16.879019498984594 0.7628459954837766 0.13419805985279698
upperback 4.356493894774545 0.7469642701783421 0.37664276627937743
thorax -4.725826598001916 0.33058953607164 0.13067226539911797
lowerneck -6.816295654255566 -4.843928706741204 -6.723361214747799
upperneck -3.295596950501368 -6.0937666804021084 8.962996123657234
head 0.5909273764811536 -3.0153128370620057 3.628328306485674
rclavicle -3.421708513212845E-15 7.215652182529018E-17
rhumerus -8.653597222125804 -3.196534782545287 -69.5355432561562
rradius 9.723084297973365
rwrist 43.095350416922194
rhand -6.051121612360419 20.428180854667918
rfingers 7.125020000000035
rthumb 19.743631006448368 -9.264224686834961
lclavicle 1.4074053800893706E-16 -6.730360024065501E-17
lhumerus 18.802184152314737 -31.781963242959854 69.10366948405027
lradius 124.22307438029227
lwrist 53.70610109935648
lhand -27.24593654239606 42.675397553665974
lfingers 7.141407888464194
lthumb -0.5233829451845846 52.90252492858721
rfemur -26.83960524979516 3.607953218960131 12.49009425048633
rtibia 53.974888026816195
rfoot -7.646195631778503 -12.102868615717496
rtoes -1.9827128643796286
lfemur -23.30443924450301 -0.21552398573360154 -11.13960212149516
ltibia 49.81151908892089
lfoot -8.112885684562244 1.614902805254582
ltoes -8.500091172003202
302
root 0 0 0 0.033064420142597584 -30.58748156243812 0.2582965204253553
lowerback 16.75285522564966 0.7163048204820773 0.18632933958957199
upperback 4.2795366335878455 0.6968337272031259 0.41613830542905017
thorax -4.735248040866971 0.3053999108417793 0.15001332742359513
lowerneck -7.0115556561924635 -4.704778339094775 -6.62388310278546
upperneck -3.2812256627444594 -5.895228331842306 8.747470331491288
head 0.6073149503924338 -2.9203846902459607 3.552729529459252
rclavicle -3.42553519795805E-15 7.580654319958091E-17
rhumerus -8.584378575885518 -3.2166088055238653 -69.50562267082373
rradius 9.79611370637327
rwrist 43.04944473714542
rhand -6.089858182259434 20.393904404096965
rfingers 7.125020000000035
rthumb 19.70651915101575 -9.298488813958325
lclavicle 1.2548721588909683E-16 -6.29340632413467E-17
lhumerus 18.692071017245546 -31.804559668268876 69.16998902531003
lradius 124.12668931765089
lwrist 53.59552319271896
lhand -27.195792940556437 42.64895587751915
lfingers 7.141288833687577
lthumb -0.4754788397814842 52.91802136690069
rfemur -26.636442972737765 3.671107560821741 12.578362640338016
rtibia 53.800165019554285
rfoot -7.754443949440073 -12.1022643617651
rtoes -1.9935612240208664
lfemur -23.53931468889447 -0.09368174737305268 -11.111763442656425
ltibia 50.239474921162056
lfoot -8.07004913985389 1.4329272670114932
ltoes -8.646810548599564
303
root 0 0 0 -0.24321735789500787 -31.183763592072452 0.3691209141908394
lowerback 16.580118958267686 0.6640693298908474 0.2519058604776767
upperback 4.178437887999485 0.6424004585296177 0.4612351871379168
thorax -4.74433642552641 0.27807687596881725 0.16873106310117028
lowerneck -7.256755930830874 -4.540584625430795 -6.503655397386367
upperneck -3.2403774951436493 -5.662112129383802 8.487417431719045
head 0.6370749212367111 -2.808239021308899 3.46065597962419
rclavicle -3.4297549817320515E-15 7.99302608297846E-17
rhumerus -8.49191633206348 -3.2541265968060866 -69.46240042173807
rradius 9.880217421133537
rwrist 42.99870941331898
rhand -6.13824247588671 20.35558558743292
rfingers 7.125020000000035
rthumb 19.660124216397918 -9.336916033809235
lclavicle 1.0756667099806691E-16 -5.779459655952058E-17
lhumerus 18.558941228282208 -31.839671370275724 69.25346714313957
lradius 124.02252426406122
lwrist 53.46920965110521
lhand -27.134839839241884 42.619739829138084
lfingers 7.141159333499499
lthumb -0.41714997217896155 52.93611413743439
rfemur -26.38605404497697 3.746374233875817 12.688266664784367
rtibia 53.584881332731726
rfoot -7.888046121422237 -12.106571761398811
rtoes -2.0044060233902714
lfemur -23.781846664291677 0.03375333691731819 -11.083753263404532
ltibia 50.68764453609616
lfoot -8.027446759629726 1.240480113904887
ltoes -8.803423455506714
304
root 0 0 0 -0.578032288375486 -31.831152430386165 0.4807777995626079
lowerback 16.346307405806606 0.605527122389164 0.33471325925710427
upperback 4.046298360297068 0.5837576750380116 0.5128417597879169
thorax -4.75238432190044 0.24869290035009506 0.18577357544819928
lowerneck -7.564816901281242 -4.345410797917668 -6.357040440402504
upperneck -3.160271589247504 -5.386500166615668 8.171203426425336
head 0.6856477409642165 -2.6748096925031155 3.347677415587562
rclavicle -3.4342318988784207E-15 8.457338589322419E-17
rhumerus -8.369360439143055 -3.3143994756253523 -69.40195975293645
rradius 9.978695379108963
rwrist 42.94175264306223
rhand -6.199183958194407 20.31207244564479
rfingers 7.125020000000035
rthumb 19.601644424507782 -9.380699672299702
lclavicle 8.65430641442053E-17 -5.172697836269154E-17
lhumerus 18.394822221275245 -31.894795144653138 69.36137476262246
lradius 123.9130161877215
lwrist 53.324893471994024
lhand -27.05933856014405 42.58790209387972
lfingers 7.141019125599071
lthumb -0.34476234709534737 52.957355592265515
rfemur -26.077597271108946 3.8365541661581046 12.82477964809913
rtibia 53.31969395556722
rfoot -8.052445446173989 -12.116840799800558
rtoes -2.0149878669593044
lfemur -24.035119656221525 0.1678568236250224 -11.05500329186691
ltibia 51.16103014549785
lfoot -7.983983179935372 1.0348470234284255
ltoes -8.971925429520729
305
root 0 0 0 -0.9793283386356757 -32.516555212263846 0.589843275795869
lowerback 16.036174456606233 0.54077139256015 0.4386322336652697
upperback 3.876297445099313 0.5219343963403331 0.5714218363008345
thorax -4.7581894938125835 0.21780832307312545 0.199436843535504
lowerneck -7.947686688217143 -4.1134507254103685 -6.1780369618594895
upperneck -3.0231887654913177 -5.060749775717564 7.786723365437412
head 0.7598542949845282 -2.516123014160511 3.209159755282711
rclavicle -3.4386118540626074E-15 8.973769768893349E-17
rhumerus -8.209332951387653 -3.4027792756270703 -69.32023501496788
rradius 10.095723687460314
rwrist 42.876620050997474
rhand -6.276018522449466 20.261808534271395
rfingers 7.125020000000035
rthumb 19.527868002432083 -9.431441434998451
lclavicle 6.233003163992937E-17 -4.46395311902538E-17
lhumerus 18.19001092302212 -31.980431460067436 69.50313206343733
lradius 123.8033958106856
lwrist 53.16127216012895
lhand -26.964788759532077 42.554115584477856
lfingers 7.140868447878149
lthumb -0.2539316056331664 52.982199762428145
rfemur -25.697017371789148 3.945034346607767 12.9944445201888
rtibia 52.99261795559126
rfoot -8.2547730576572 -12.134791551652151
rtoes -2.0248228969376747
lfemur -24.30218465453202 0.30991845011244346 -11.024965360151532
ltibia 51.66451732722653
lfoot -7.939060859496125 0.8139772911622085
ltoes -9.154017172654887
